<svg width="332" height="131" viewBox="0 0 332 131" fill="none" xmlns="http://www.w3.org/2000/svg">
<rect x="111.5" y="81.5" width="49" height="49" rx="24.5" stroke="#5DDBF5"/>
<path d="M131.313 110.688L140.688 101.312M134.125 103.188C134.125 103.685 133.927 104.162 133.576 104.513C133.224 104.865 132.747 105.062 132.25 105.062C131.753 105.062 131.276 104.865 130.924 104.513C130.573 104.162 130.375 103.685 130.375 103.188C130.375 102.69 130.573 102.213 130.924 101.862C131.276 101.51 131.753 101.312 132.25 101.312C132.747 101.312 133.224 101.51 133.576 101.862C133.927 102.213 134.125 102.69 134.125 103.188ZM141.625 109.75C141.625 110.247 141.427 110.724 141.076 111.076C140.724 111.427 140.247 111.625 139.75 111.625C139.253 111.625 138.776 111.427 138.424 111.076C138.073 110.724 137.875 110.247 137.875 109.75C137.875 109.253 138.073 108.776 138.424 108.424C138.776 108.073 139.253 107.875 139.75 107.875C140.247 107.875 140.724 108.073 141.076 108.424C141.427 108.776 141.625 109.253 141.625 109.75ZM132.116 95.8202L129.092 96.0867C128.724 96.1191 128.404 96.3518 128.26 96.6918L127.073 99.4842C127.014 99.6237 126.924 99.748 126.809 99.8475L124.52 101.839C124.242 102.082 124.119 102.458 124.202 102.818L124.882 105.776C124.916 105.923 124.916 106.077 124.882 106.224L124.202 109.182C124.119 109.542 124.242 109.918 124.52 110.161L126.809 112.152C126.924 112.252 127.014 112.376 127.073 112.516L128.26 115.308C128.404 115.648 128.724 115.881 129.092 115.913L132.116 116.18C132.267 116.193 132.413 116.24 132.543 116.318L135.144 117.879C135.461 118.069 135.856 118.069 136.173 117.879L138.776 116.318C138.906 116.24 139.052 116.193 139.203 116.18L142.226 115.913C142.593 115.881 142.913 115.648 143.058 115.309L144.246 112.515C144.305 112.376 144.396 112.252 144.51 112.153L146.798 110.161C147.076 109.918 147.198 109.542 147.116 109.182L146.435 106.224C146.401 106.077 146.401 105.923 146.435 105.776L147.116 102.816C147.198 102.456 147.076 102.08 146.797 101.837L144.51 99.8474C144.396 99.7479 144.305 99.6238 144.246 99.4844L143.058 96.6914C142.913 96.3516 142.593 96.1191 142.226 96.0867L139.203 95.8202C139.052 95.8069 138.906 95.7596 138.776 95.6817L136.173 94.1209C135.856 93.9311 135.461 93.9311 135.144 94.121L132.543 95.6816C132.413 95.7595 132.267 95.8069 132.116 95.8202Z" stroke="#011BEA" stroke-width="2"/>
<rect x="181.5" y="1.5" width="49" height="49" rx="24.5" stroke="#5DDBF5"/>
<path d="M214.75 26C214.75 26.3315 214.618 26.6495 214.384 26.8839C214.149 27.1183 213.832 27.25 213.5 27.25C213.168 27.25 212.851 27.1183 212.616 26.8839C212.382 26.6495 212.25 26.3315 212.25 26C212.25 25.6685 212.382 25.3505 212.616 25.1161C212.851 24.8817 213.168 24.75 213.5 24.75C213.832 24.75 214.149 24.8817 214.384 25.1161C214.618 25.3505 214.75 25.6685 214.75 26Z" fill="#011BEA"/>
<path fill-rule="evenodd" clip-rule="evenodd" d="M203.43 15.0625H207.32C209.618 15.0625 211.438 15.0625 212.861 15.2538C214.326 15.4513 215.512 15.8662 216.449 16.8012C217.604 17.9575 217.972 19.505 218.106 21.5138C218.827 21.83 219.373 22.5012 219.431 23.3512C219.438 23.4275 219.438 23.5088 219.438 23.5838V28.4162C219.438 28.4912 219.438 28.5725 219.433 28.6475C219.373 29.4975 218.827 30.17 218.106 30.4875C217.972 32.495 217.604 34.0425 216.449 35.1987C215.512 36.1337 214.326 36.5487 212.861 36.7463C211.436 36.9375 209.618 36.9375 207.32 36.9375H203.43C201.132 36.9375 199.312 36.9375 197.889 36.7463C196.424 36.5487 195.237 36.1337 194.301 35.1987C193.366 34.2625 192.951 33.0763 192.754 31.6112C192.562 30.1862 192.562 28.3675 192.562 26.07V25.93C192.562 23.6325 192.562 21.8125 192.754 20.3888C192.951 18.9237 193.366 17.7375 194.301 16.8012C195.237 15.8662 196.424 15.4513 197.889 15.2538C199.314 15.0625 201.132 15.0625 203.43 15.0625ZM216.21 30.6875H213.787C211.106 30.6875 208.811 28.6525 208.811 26C208.811 23.3475 211.106 21.3125 213.786 21.3125H216.209C216.066 19.6363 215.745 18.75 215.121 18.1275C214.593 17.5988 213.868 17.2812 212.61 17.1125C211.326 16.94 209.632 16.9375 207.249 16.9375H203.499C201.115 16.9375 199.423 16.94 198.136 17.1125C196.88 17.2812 196.155 17.5988 195.626 18.1275C195.098 18.6562 194.781 19.3812 194.613 20.6375C194.44 21.9225 194.438 23.615 194.438 25.9987C194.438 28.3825 194.44 30.0763 194.613 31.3612C194.781 32.6175 195.099 33.3425 195.627 33.8713C196.156 34.4 196.881 34.7175 198.139 34.8862C199.424 35.0588 201.116 35.0613 203.5 35.0613H207.25C209.634 35.0613 211.328 35.0588 212.613 34.8862C213.869 34.7175 214.594 34.4 215.123 33.8713C215.746 33.2488 216.067 32.3638 216.21 30.6862M197.562 21C197.562 20.7514 197.661 20.5129 197.837 20.3371C198.013 20.1613 198.251 20.0625 198.5 20.0625H203.5C203.749 20.0625 203.987 20.1613 204.163 20.3371C204.339 20.5129 204.438 20.7514 204.438 21C204.438 21.2486 204.339 21.4871 204.163 21.6629C203.987 21.8387 203.749 21.9375 203.5 21.9375H198.5C198.251 21.9375 198.013 21.8387 197.837 21.6629C197.661 21.4871 197.562 21.2486 197.562 21ZM217.155 23.1875H213.787C212.007 23.1875 210.686 24.5112 210.686 26C210.686 27.4888 212.008 28.8125 213.786 28.8125H217.184C217.441 28.7963 217.552 28.6225 217.561 28.5175V23.4825C217.552 23.3775 217.441 23.2038 217.184 23.1888L217.155 23.1875Z" fill="#011BEA"/>
<rect x="251.5" y="81.5" width="49" height="49" rx="24.5" stroke="#5DDBF5"/>
<path d="M284.75 106C284.75 106.332 284.618 106.649 284.384 106.884C284.149 107.118 283.832 107.25 283.5 107.25C283.168 107.25 282.851 107.118 282.616 106.884C282.382 106.649 282.25 106.332 282.25 106C282.25 105.668 282.382 105.351 282.616 105.116C282.851 104.882 283.168 104.75 283.5 104.75C283.832 104.75 284.149 104.882 284.384 105.116C284.618 105.351 284.75 105.668 284.75 106Z" fill="#011BEA"/>
<path fill-rule="evenodd" clip-rule="evenodd" d="M273.43 95.0625H277.32C279.618 95.0625 281.438 95.0625 282.861 95.2538C284.326 95.4513 285.512 95.8662 286.449 96.8012C287.604 97.9575 287.972 99.505 288.106 101.514C288.827 101.83 289.373 102.501 289.431 103.351C289.438 103.427 289.438 103.509 289.438 103.584V108.416C289.438 108.491 289.438 108.573 289.433 108.648C289.373 109.498 288.827 110.17 288.106 110.488C287.972 112.495 287.604 114.042 286.449 115.199C285.512 116.134 284.326 116.549 282.861 116.746C281.436 116.938 279.618 116.938 277.32 116.938H273.43C271.132 116.938 269.312 116.938 267.889 116.746C266.424 116.549 265.237 116.134 264.301 115.199C263.366 114.262 262.951 113.076 262.754 111.611C262.562 110.186 262.562 108.368 262.562 106.07V105.93C262.562 103.632 262.562 101.812 262.754 100.389C262.951 98.9237 263.366 97.7375 264.301 96.8012C265.237 95.8662 266.424 95.4513 267.889 95.2538C269.314 95.0625 271.132 95.0625 273.43 95.0625ZM286.21 110.688H283.787C281.106 110.688 278.811 108.653 278.811 106C278.811 103.347 281.106 101.312 283.786 101.312H286.209C286.066 99.6363 285.745 98.75 285.121 98.1275C284.593 97.5988 283.868 97.2812 282.61 97.1125C281.326 96.94 279.632 96.9375 277.249 96.9375H273.499C271.115 96.9375 269.423 96.94 268.136 97.1125C266.88 97.2812 266.155 97.5988 265.626 98.1275C265.098 98.6562 264.781 99.3812 264.613 100.637C264.44 101.922 264.438 103.615 264.438 105.999C264.438 108.382 264.44 110.076 264.613 111.361C264.781 112.618 265.099 113.343 265.627 113.871C266.156 114.4 266.881 114.717 268.139 114.886C269.424 115.059 271.116 115.061 273.5 115.061H277.25C279.634 115.061 281.328 115.059 282.613 114.886C283.869 114.717 284.594 114.4 285.123 113.871C285.746 113.249 286.067 112.364 286.21 110.686M267.562 101C267.562 100.751 267.661 100.513 267.837 100.337C268.013 100.161 268.251 100.062 268.5 100.062H273.5C273.749 100.062 273.987 100.161 274.163 100.337C274.339 100.513 274.438 100.751 274.438 101C274.438 101.249 274.339 101.487 274.163 101.663C273.987 101.839 273.749 101.938 273.5 101.938H268.5C268.251 101.938 268.013 101.839 267.837 101.663C267.661 101.487 267.562 101.249 267.562 101ZM287.155 103.188H283.787C282.007 103.188 280.686 104.511 280.686 106C280.686 107.489 282.008 108.812 283.786 108.812H287.184C287.441 108.796 287.552 108.622 287.561 108.517V103.483C287.552 103.378 287.441 103.204 287.184 103.189L287.155 103.188Z" fill="#011BEA"/>
<rect x="41.5" y="1.5" width="49" height="49" rx="24.5" stroke="#5DDBF5"/>
<path d="M77.8652 17.1846L72.0293 17.8877C71.8359 17.9111 71.7539 18.1484 71.8916 18.2861L73.6289 20.0234L67.0078 26.6445L64.0254 23.665C63.8408 23.4805 63.5449 23.4834 63.3633 23.665L53.9385 33.0928C53.8949 33.1368 53.8704 33.1963 53.8704 33.2583C53.8704 33.3203 53.8949 33.3798 53.9385 33.4238L55.2568 34.7481C55.3477 34.8389 55.4971 34.8389 55.5879 34.7481L63.6943 26.6445L66.6738 29.624C66.8584 29.8057 67.1543 29.8057 67.3359 29.624L75.2871 21.6787L77.0244 23.416C77.0555 23.447 77.0947 23.4686 77.1376 23.4784C77.1804 23.4882 77.2251 23.4858 77.2666 23.4715C77.3081 23.4571 77.3448 23.4314 77.3724 23.3973C77.4 23.3631 77.4175 23.3219 77.4229 23.2783L78.126 17.4424C78.1465 17.293 78.0176 17.1641 77.8652 17.1846Z" fill="#011BEA"/>
<path d="M161 106H206" stroke="#5DDBF5" stroke-linecap="round" stroke-dasharray="9 9"/>
<path d="M231 25H331" stroke="#5DDBF5" stroke-linecap="round" stroke-dasharray="9 9"/>
<path d="M206 105L206 52" stroke="#5DDBF5" stroke-linecap="round" stroke-dasharray="9 9"/>
<path d="M276 80L276 27" stroke="#5DDBF5" stroke-linecap="round" stroke-dasharray="9 9"/>
<path d="M136 80L136 27" stroke="#5DDBF5" stroke-linecap="round" stroke-dasharray="9 9"/>
<path d="M136 1L136 27" stroke="#5DDBF5" stroke-linecap="round" stroke-dasharray="9 9"/>
<path d="M276 1L276 27" stroke="#5DDBF5" stroke-linecap="round" stroke-dasharray="9 9"/>
<path d="M91 25L136 25" stroke="#5DDBF5" stroke-linecap="round" stroke-dasharray="9 9"/>
<path d="M1 25L40 25" stroke="#5DDBF5" stroke-linecap="round" stroke-dasharray="9 9"/>
</svg>
