<svg width="30" height="30" viewBox="0 0 30 30" fill="none" xmlns="http://www.w3.org/2000/svg">
<path d="M2.8875 14.0538C2.84133 13.8694 2.83779 13.677 2.87713 13.4911C2.91648 13.3052 2.99769 13.1308 3.11459 12.981C3.23148 12.8312 3.38099 12.71 3.55174 12.6267C3.72249 12.5433 3.91 12.5 4.1 12.5H25.9C26.0899 12.5001 26.2772 12.5434 26.4479 12.6266C26.6185 12.7099 26.7679 12.831 26.8848 12.9806C27.0017 13.1302 27.0829 13.3045 27.1224 13.4903C27.1618 13.676 27.1585 13.8683 27.1125 14.0525L24.8488 23.1063C24.7136 23.6471 24.4015 24.1272 23.9621 24.4704C23.5227 24.8135 22.9812 24.9999 22.4238 25H7.57625C7.01877 24.9999 6.4773 24.8135 6.03792 24.4704C5.59853 24.1272 5.28644 23.6471 5.15125 23.1063L2.8875 14.0538Z" stroke="white" stroke-width="2.5" stroke-linejoin="round"/>
<path d="M11.25 17.5V20M18.75 17.5V20M7.5 12.5L12.5 5M22.5 12.5L17.5 5" stroke="white" stroke-width="2.5" stroke-linecap="round"/>
</svg>
