<svg width="35" height="41" viewBox="0 0 35 41" fill="none" xmlns="http://www.w3.org/2000/svg">
<rect width="35" height="41" rx="17.5" fill="#5DDBF5"/>
<path d="M17.5 21.9583L20.5208 24.9792C20.7118 25.1701 20.9548 25.2656 21.25 25.2656C21.5451 25.2656 21.7882 25.1701 21.9791 24.9792C22.1701 24.7882 22.2656 24.5451 22.2656 24.25C22.2656 23.9549 22.1701 23.7118 21.9791 23.5208L18.9583 20.5L21.9791 17.4792C22.1701 17.2882 22.2656 17.0451 22.2656 16.75C22.2656 16.4549 22.1701 16.2118 21.9791 16.0208C21.7882 15.8299 21.5451 15.7344 21.25 15.7344C20.9548 15.7344 20.7118 15.8299 20.5208 16.0208L17.5 19.0417L14.4791 16.0208C14.2882 15.8299 14.0451 15.7344 13.75 15.7344C13.4548 15.7344 13.2118 15.8299 13.0208 16.0208C12.8298 16.2118 12.7344 16.4549 12.7344 16.75C12.7344 17.0451 12.8298 17.2882 13.0208 17.4792L16.0416 20.5L13.0208 23.5208C12.8298 23.7118 12.7344 23.9549 12.7344 24.25C12.7344 24.5451 12.8298 24.7882 13.0208 24.9792C13.2118 25.1701 13.4548 25.2656 13.75 25.2656C14.0451 25.2656 14.2882 25.1701 14.4791 24.9792L17.5 21.9583ZM17.5 30.9167C16.059 30.9167 14.7048 30.6431 13.4375 30.0958C12.1701 29.5486 11.0677 28.8066 10.1302 27.8698C9.19269 26.933 8.45068 25.8306 7.90415 24.5625C7.35762 23.2944 7.08401 21.9403 7.08331 20.5C7.08262 19.0597 7.35623 17.7056 7.90415 16.4375C8.45206 15.1694 9.19408 14.067 10.1302 13.1302C11.0663 12.1934 12.1687 11.4514 13.4375 10.9042C14.7062 10.3569 16.0604 10.0833 17.5 10.0833C18.9396 10.0833 20.2937 10.3569 21.5625 10.9042C22.8312 11.4514 23.9337 12.1934 24.8698 13.1302C25.8059 14.067 26.5482 15.1694 27.0969 16.4375C27.6455 17.7056 27.9187 19.0597 27.9166 20.5C27.9146 21.9403 27.641 23.2944 27.0958 24.5625C26.5507 25.8306 25.8087 26.933 24.8698 27.8698C23.9309 28.8066 22.8285 29.549 21.5625 30.0969C20.2965 30.6448 18.9423 30.9181 17.5 30.9167ZM17.5 28.8333C19.8264 28.8333 21.7969 28.026 23.4114 26.4115C25.026 24.7969 25.8333 22.8264 25.8333 20.5C25.8333 18.1736 25.026 16.2031 23.4114 14.5885C21.7969 12.974 19.8264 12.1667 17.5 12.1667C15.1736 12.1667 13.2031 12.974 11.5885 14.5885C9.97394 16.2031 9.16665 18.1736 9.16665 20.5C9.16665 22.8264 9.97394 24.7969 11.5885 26.4115C13.2031 28.026 15.1736 28.8333 17.5 28.8333Z" fill="white"/>
</svg>
