<svg width="35" height="41" viewBox="0 0 35 41" fill="none" xmlns="http://www.w3.org/2000/svg">
<rect x="0.5" y="0.5" width="34" height="40" rx="17" stroke="#5DDBF5"/>
<path d="M17.5 11.125C23.1167 11.125 27.7896 15.1667 28.7698 20.5C27.7906 25.8333 23.1167 29.875 17.5 29.875C11.8833 29.875 7.21043 25.8333 6.23126 20.5C7.21043 15.1667 11.8833 11.125 17.5 11.125ZM17.5 27.7917C19.6246 27.7914 21.6863 27.0699 23.3474 25.7453C25.0085 24.4206 26.1707 22.5713 26.6438 20.5C26.1694 18.43 25.0067 16.5822 23.3458 15.2589C21.685 13.9355 19.6242 13.2149 17.5005 13.2149C15.3769 13.2149 13.3161 13.9355 11.6552 15.2589C9.99433 16.5822 8.83164 18.43 8.3573 20.5C8.83032 22.5711 9.99238 24.4203 11.6533 25.745C13.3142 27.0696 15.3756 27.7912 17.5 27.7917ZM17.5 25.1875C16.2568 25.1875 15.0645 24.6936 14.1854 23.8146C13.3064 22.9355 12.8125 21.7432 12.8125 20.5C12.8125 19.2568 13.3064 18.0645 14.1854 17.1854C15.0645 16.3064 16.2568 15.8125 17.5 15.8125C18.7432 15.8125 19.9355 16.3064 20.8146 17.1854C21.6937 18.0645 22.1875 19.2568 22.1875 20.5C22.1875 21.7432 21.6937 22.9355 20.8146 23.8146C19.9355 24.6936 18.7432 25.1875 17.5 25.1875ZM17.5 23.1042C18.1907 23.1042 18.8531 22.8298 19.3414 22.3414C19.8298 21.853 20.1042 21.1907 20.1042 20.5C20.1042 19.8093 19.8298 19.147 19.3414 18.6586C18.8531 18.1702 18.1907 17.8958 17.5 17.8958C16.8093 17.8958 16.147 18.1702 15.6586 18.6586C15.1702 19.147 14.8958 19.8093 14.8958 20.5C14.8958 21.1907 15.1702 21.853 15.6586 22.3414C16.147 22.8298 16.8093 23.1042 17.5 23.1042Z" fill="#5DDBF5"/>
</svg>
