<svg width="31" height="30" viewBox="0 0 31 30" fill="none" xmlns="http://www.w3.org/2000/svg">
<path d="M15.5 2.5C8.6075 2.5 3 8.1075 3 15V20.1787C3 21.4587 4.12125 22.5 5.5 22.5H6.75C7.08152 22.5 7.39946 22.3683 7.63388 22.1339C7.8683 21.8995 8 21.5815 8 21.25V14.8213C8 14.4897 7.8683 14.1718 7.63388 13.9374C7.39946 13.7029 7.08152 13.5713 6.75 13.5713H5.615C6.31 8.73375 10.4725 5 15.5 5C20.5275 5 24.69 8.73375 25.385 13.5713H24.25C23.9185 13.5713 23.6005 13.7029 23.3661 13.9374C23.1317 14.1718 23 14.4897 23 14.8213V22.5C23 23.8787 21.8787 25 20.5 25H18V23.75H13V27.5H20.5C23.2575 27.5 25.5 25.2575 25.5 22.5C26.8787 22.5 28 21.4587 28 20.1787V15C28 8.1075 22.3925 2.5 15.5 2.5Z" fill="white"/>
</svg>
